<?xml version="1.0" encoding="UTF-8" standalone="no"?>
<svg
   width="1920"
   height="785"
   version="1.1"
   viewBox="0 0 1920 785"
   id="svg16"
   sodipodi:docname="logo.svg"
   inkscape:version="1.1.1 (3bf5ae0d25, 2021-09-20)"
   xmlns:inkscape="http://www.inkscape.org/namespaces/inkscape"
   xmlns:sodipodi="http://sodipodi.sourceforge.net/DTD/sodipodi-0.dtd"
   xmlns="http://www.w3.org/2000/svg"
   xmlns:svg="http://www.w3.org/2000/svg">
  <defs
     id="defs20" />
  <sodipodi:namedview
     id="namedview18"
     pagecolor="#ffffff"
     bordercolor="#666666"
     borderopacity="1.0"
     inkscape:pageshadow="2"
     inkscape:pageopacity="0.0"
     inkscape:pagecheckerboard="0"
     showgrid="false"
     inkscape:zoom="0.6484375"
     inkscape:cx="960"
     inkscape:cy="540.53012"
     inkscape:window-width="1920"
     inkscape:window-height="1048"
     inkscape:window-x="0"
     inkscape:window-y="32"
     inkscape:window-maximized="1"
     inkscape:current-layer="svg16" />
  <g
     fill="#9013fe"
     id="g14"
     transform="matrix(1.3177932,0,0,1.3177932,498.7775,23.507061)">
    <path
       d="m 605.81,436.15 c -25.418,-17.402 -47.262,-33.059 -61.363,-48.734 12.48,-8.5195 12.871,-19.578 10.703,-27.754 -0.40234,-1.5117 -1.5664,-2.6953 -3.0703,-3.1289 -1.5,-0.44141 -3.1172,-0.043 -4.2617,1.0234 -5.707,5.3555 -11.602,6.5117 -18.828,3.7617 -0.23438,-0.875 -0.51563,-1.7461 -0.69141,-2.625 -1.3203,-6.5898 -5.1172,-12.324 -10.707,-16.152 l -18.145,-12.422 c -0.004,-0.004 -0.004,-0.004 -0.008,-0.008 l -36.465,-24.973 7.5508,-11.027 c 0.66016,-0.97656 0.91406,-2.168 0.70312,-3.3281 -0.21875,-1.1602 -0.88281,-2.1875 -1.8633,-2.8516 l -3.0508,-2.0898 8.7852,-12.828 4.3945,7.082 c 0.008,0.0195 0.0273,0.0273 0.0352,0.043 0.0312,0.0508 0.0703,0.0859 0.10156,0.12891 0.26953,0.39453 0.60938,0.72266 0.98047,1.0078 0.0547,0.0391 0.0859,0.10156 0.13672,0.14062 l 15.375,10.531 c 0.76953,0.52344 1.6445,0.77734 2.5039,0.77734 1.418,0 2.8086,-0.67578 3.668,-1.9336 l 26.512,-38.707 c 0.66016,-0.97266 0.91406,-2.168 0.70312,-3.3281 -0.21875,-1.1602 -0.88281,-2.1797 -1.8555,-2.8516 l -15.375,-10.531 c -0.0586,-0.0391 -0.125,-0.0391 -0.18359,-0.0742 -0.41016,-0.25391 -0.85156,-0.45312 -1.332,-0.5625 -0.0508,-0.0117 -0.0976,-0.0352 -0.14844,-0.043 -0.008,0 -0.0195,-0.008 -0.0312,-0.008 l -28.59,-5.3672 -58.777,-40.25 -15.332,-24.715 c -0.008,-0.0195 -0.0273,-0.0274 -0.0351,-0.043 -0.0312,-0.043 -0.0703,-0.0781 -0.10156,-0.12891 -0.27734,-0.39453 -0.60938,-0.73047 -0.98438,-1.0078 -0.0547,-0.0391 -0.0859,-0.10156 -0.13672,-0.14062 l -15.375,-10.531 c -2.0312,-1.3906 -4.7852,-0.86328 -6.1797,1.1562 l -26.512,38.707 c -0.66016,0.97266 -0.91406,2.168 -0.70312,3.3281 0.21875,1.1602 0.88281,2.1797 1.8555,2.8516 l 15.375,10.531 c 0.0781,0.0547 0.17188,0.0703 0.25391,0.12109 0.23047,0.13672 0.47266,0.25391 0.73047,0.35156 0.15625,0.0586 0.30078,0.10547 0.45703,0.14844 0.0859,0.0234 0.16406,0.0625 0.25391,0.0781 l 8.1914,1.5391 -8.7852,12.828 -3.0508,-2.0938 c -0.97656,-0.66016 -2.1797,-0.90625 -3.3281,-0.70312 -1.1602,0.21875 -2.1797,0.88281 -2.8516,1.8555 l -7.5508,11.031 -197.73,-135.409998 c -2.0312,-1.3906 -4.7891,-0.86328 -6.1797,1.1562 l -9.3281,13.624998 c -1.3789,2.0117 -0.875,4.7539 1.1211,6.1523 l 149.09,104.39 -5.3281,25.582 c -0.36719,1.7578 0.35547,3.5586 1.8359,4.5703 l 98.852,67.695 -8.9414,19.258 c -2.125,4.5703 -2.2617,9.6719 -0.39063,14.344 1.8672,4.6836 5.4727,8.2812 10.16,10.137 l 34.086,13.5 c 1.8242,0.72266 3.7266,1.0703 5.6094,1.0703 4,0 7.9141,-1.5742 10.832,-4.5391 l 4.582,-4.6562 c 0.18359,0.97266 0.35547,1.9492 0.52344,2.9219 1.4258,8.125 2.9023,16.531 9.5938,20.641 5.625,3.4609 10.461,2.707 14.75,2.0391 5.4141,-0.83594 10.09,-1.5742 18.523,5.9648 7.8398,7.0078 25.156,49.465 46.324,113.57 2.3672,7.1797 8.4883,12.305 15.98,13.363 0.94922,0.13281 1.8945,0.20312 2.8281,0.20312 6.4766,-0.004 12.539,-3.1562 16.281,-8.6133 l 38.688,-56.492 c 3.1016,-4.5312 4.2461,-9.9961 3.2383,-15.395 -1.0195,-5.375 -4.0781,-10.059 -8.6016,-13.156 z m -58.625,-67.254 c -0.48047,3.7852 -2.6211,7.8828 -8.375,11.613 -2.2383,-2.9961 -4.1719,-6.0039 -5.7773,-9.0312 4.9922,0.60547 9.7227,-0.25 14.152,-2.582 z m -149.9,-124.93 c 0.66016,-0.97266 0.91406,-2.168 0.70312,-3.3281 -0.21875,-1.1602 -0.88281,-2.1797 -1.8555,-2.8516 l -1.3711,-0.9375 13.512,-19.73 52.988,36.285 -13.516,19.734 -1.3711,-0.9375 c -2.0195,-1.3867 -4.7812,-0.86328 -6.1758,1.1562 l -7.5508,11.027 -42.914,-29.391 z m 42.695,45.43 5.043,-7.3633 1.3633,0.93359 0.008,0.008 c 0.004,0.004 0.008,0.004 0.0117,0.008 l 11.211,7.6719 c 0.004,0 0.004,0.004 0.008,0.008 0.004,0.004 0.008,0.004 0.0117,0.004 l 3.0469,2.082 -5.043,7.3633 -13.098,-8.9648 z m 18.996,-8.5664 -3.8945,-2.6719 12.172,-17.777 2.7188,4.3867 z m 38.504,1.2852 -8.0469,-5.5078 4.625,-6.7539 16.863,-24.621 8.043,5.5078 z m -80.055,-86.238 60.32,41.309 c 0.51172,0.34766 1.0859,0.58594 1.6914,0.69922 l 22.809,4.2812 -18.805,27.461 -4.4258,-7.1367 -0.004,-0.004 -7.8008,-12.578 c -0.004,-0.008 -0.0117,-0.0117 -0.0234,-0.0234 -0.31641,-0.49609 -0.72266,-0.94531 -1.2422,-1.3008 l -60.32,-41.309 c -0.51953,-0.35547 -1.0898,-0.57813 -1.6719,-0.6875 -0.008,0 -0.0117,-0.008 -0.0234,-0.008 l -14.535,-2.7266 c -0.0117,-0.004 -0.0234,-0.004 -0.0352,-0.008 l -8.2383,-1.5469 18.812,-27.465 12.234,19.719 c 0.32031,0.52734 0.75391,0.98047 1.2578,1.3242 z m -27.535,-33.527 8.0469,5.5078 -4.625,6.7539 -16.863,24.621 -8.043,-5.5078 z m 4.6328,50.754 5.0703,0.94922 -12.168,17.777 -3.9023,-2.6719 z m -22.742,18.785 3.0508,2.0898 h 0.004 l 11.219,7.6758 0.0117,0.0117 c 0.004,0.004 0.0117,0.004 0.0234,0.008 l 1.3555,0.92969 -5.043,7.3633 -7.1953,-4.9258 -8.4648,-5.7969 z m -211.46,-123.23 330.11,226.06 c -2.3867,2.3867 -5.0117,3.7773 -7.832,4.1445 -3.7148,0.47656 -7.9297,-0.80859 -12.203,-3.7227 l -166.54,-116.61 c 0,0 -0.004,-0.004 -0.008,-0.004 l -147.87,-103.54 z m 276.44,260.88 c -1.7773,1.8086 -4.4648,2.375 -6.8359,1.4375 l -34.086,-13.5 c -2.3906,-0.94531 -4.2305,-2.7812 -5.1797,-5.168 -0.95703,-2.3906 -0.87891,-4.9883 0.19922,-7.3164 l 8.3125,-17.91 4.1758,2.8594 -7.6719,15.344 c -0.53906,1.0742 -0.61719,2.3242 -0.21875,3.4609 0.39844,1.1367 1.2422,2.0625 2.3359,2.5625 l 31.547,14.473 c 0.59375,0.27734 1.2266,0.40234 1.8516,0.40234 1.3281,0 2.625,-0.59375 3.4883,-1.6914 l 6.625,-8.3984 c 1.543,1.3516 2.7227,3.0938 3.625,5.1211 z m -7.9062,-22.133 5.1992,3.5586 -4.1719,5.2852 -5.1094,-2.3398 c 1.6914,-1.8789 3.0469,-4.0547 4.082,-6.5039 z m -12.941,2.4414 -10.23,-4.6914 5.0742,-10.145 10.5,7.1875 c -1.0234,3.3086 -2.7812,5.8008 -5.3438,7.6484 z m 187.92,109.84 -38.688,56.492 c -2.3984,3.5 -6.3633,5.2109 -10.531,4.6445 -4.1797,-0.59375 -7.4688,-3.3438 -8.793,-7.3516 -22.922,-69.438 -39.348,-108.94 -48.84,-117.42 -11.566,-10.328 -19.793,-9.0547 -25.805,-8.1133 -3.8789,0.58984 -6.0234,0.83594 -8.7383,-0.83203 -3.2812,-2.0195 -4.3555,-8.1328 -5.4922,-14.613 -0.67578,-3.8555 -1.4258,-7.9219 -2.7031,-11.766 -0.0273,-0.0664 -0.0391,-0.13281 -0.0664,-0.19922 -1.6562,-4.9102 -4.207,-9.4336 -8.8125,-12.59 l -145.01,-99.301 3.9453,-18.953 161.02,112.74 c 0.0117,0.008 0.0274,0.0195 0.0352,0.0273 5.1875,3.5547 10.559,5.3906 15.684,5.3906 0.91016,0 1.8164,-0.0586 2.7109,-0.17188 5.2461,-0.68359 10.039,-3.4102 14.07,-7.8945 l 14.75,10.098 c 3.6602,2.5039 6.1523,6.2617 7.0156,10.559 0.38281,1.9219 0.89844,3.8242 1.5078,5.7148 0.004,0.008 0.004,0.0117 0.008,0.0234 2.582,7.9609 7.1797,15.594 13.332,23.102 0.0234,0.0274 0.0391,0.0547 0.0664,0.0781 14.688,17.879 38.402,35.039 66.289,54.129 2.5742,1.7578 4.3047,4.418 4.8828,7.4805 0.57812,3.0664 -0.0742,6.1602 -1.8359,8.7227 z"
       id="path2" />
    <path
       d="m 239.68,347.47 c 2.9844,1.5117 6.2109,2.2734 9.4688,2.2734 2.2031,0 4.418,-0.35156 6.5703,-1.0586 5.3359,-1.7539 9.6719,-5.4727 12.203,-10.484 5.2305,-10.34 1.0664,-23.012 -9.2734,-28.242 -10.352,-5.2266 -23.012,-1.0664 -28.242,9.2734 -5.2305,10.336 -1.0742,23.004 9.2734,28.238 z m -1.3438,-24.23 c 2.1328,-4.2188 6.4141,-6.6602 10.848,-6.6602 1.8398,0 3.707,0.42188 5.457,1.3047 5.9648,3.0195 8.3711,10.332 5.3477,16.305 -1.4609,2.8867 -3.9648,5.043 -7.043,6.0508 -3.082,1.0117 -6.3789,0.75781 -9.2617,-0.70312 -5.9688,-3.0195 -8.3672,-10.332 -5.3477,-16.297 z"
       id="path4" />
    <path
       d="m 373.32,354.01 -99.203,-50.172 c -2.6172,-2.6211 -5.6406,-4.8594 -9.0469,-6.5781 -17.336,-8.7617 -38.582,-1.793 -47.352,15.547 -1.3945,2.7578 -2.3516,5.625 -2.9688,8.5156 -2.9844,2.1289 -5.9141,4.4531 -8.8047,6.9141 l -8.2109,-19.449 17.637,-7.4414 c 2.2617,-0.94922 3.3203,-3.5586 2.3633,-5.8203 l -6.918,-16.387 c -0.45703,-1.0859 -1.3281,-1.9453 -2.418,-2.3906 -1.0938,-0.44531 -2.3164,-0.44141 -3.4023,0.0273 l -17.633,7.4414 -71.07,-168.4 c -0.0234,-0.0547 -0.0703,-0.0898 -0.0937,-0.14062 -0.12109,-0.25391 -0.30469,-0.46484 -0.47266,-0.69922 -0.17578,-0.24609 -0.33594,-0.49609 -0.5625,-0.70312 -0.0508,-0.043 -0.0664,-0.10547 -0.12109,-0.14844 -0.16797,-0.14062 -0.37891,-0.19141 -0.55859,-0.30078 -0.20703,-0.12891 -0.37891,-0.30469 -0.60938,-0.39844 -0.0703,-0.0273 -0.14844,-0.0195 -0.21875,-0.0391 -0.27734,-0.0977 -0.55469,-0.12109 -0.84375,-0.16016 -0.28125,-0.0391 -0.55078,-0.0977 -0.83594,-0.0859 -0.3125,0.0117 -0.59375,0.10547 -0.89844,0.1875 -0.20312,0.0547 -0.41797,0.043 -0.61328,0.12891 -0.0781,0.0352 -0.15234,0.0859 -0.23047,0.11719 -0.0508,0.0234 -0.0937,0.043 -0.13672,0.0703 -32.723,14.156 -37.418,59.75 -22.926,94.086 l 42.543,100.82 -17.637,7.4414 c -2.2617,0.94922 -3.3203,3.5586 -2.3633,5.8203 l 6.918,16.387 c 0.45703,1.0859 1.3281,1.9453 2.418,2.3906 0.53906,0.21875 1.1055,0.32422 1.6758,0.32422 0.58594,0 1.1758,-0.11719 1.7266,-0.35156 l 17.641,-7.4453 22.258,52.754 c -15.418,30.984 -19.945,48.543 -21.25,56.324 -0.83203,4.9258 0.75391,9.8398 4.4336,13.32 2.707,2.5039 6.1602,3.8281 9.7383,3.8281 1.4609,0 2.9414,-0.22266 4.4023,-0.66797 5.1992,-1.5938 9.1875,-5.8516 10.414,-11.117 1.7031,-7.3164 4.4258,-17.035 8.5391,-28.219 2,1.9609 4.3047,3.582 6.8555,4.793 -3.0117,5.4062 -5.4609,11.453 -7.0156,17.797 -2.6133,10.656 -2.2617,20.273 1,27.586 -4.7305,3.8555 -10.746,12.82 -7.3398,32.949 3.6328,21.445 25.715,35.109 30.621,37.906 5.0234,7.668 15.441,13.195 25.137,13.195 0.28906,0 0.57031,-0.0352 0.85156,-0.043 3.5234,1.5625 15.691,6.4922 29.207,6.4922 6.4609,0 13.23,-1.125 19.504,-4.2812 18.219,-9.1797 21.879,-19.332 22.188,-25.426 7.7539,-1.6758 15.742,-7.0938 22.812,-15.559 9.7305,-11.645 15.488,-26.188 15.211,-37.824 10.715,-10.582 15.754,-31.828 7.3398,-45.02 1.8477,-10.531 0.28516,-20.598 -4.6602,-29.984 l 5.8086,-11.48 c 0.39453,-0.78516 0.55078,-1.6719 0.44531,-2.543 l -0.69141,-5.6484 c 1.4102,0.24609 2.8281,0.41016 4.25,0.41016 1.9531,0 3.9141,-0.23438 5.8242,-0.69922 5.9336,-1.4492 10.781,-5.1328 13.297,-10.102 l 5.9961,-11.859 c 1.1172,-2.2109 0.24219,-4.8828 -1.9492,-5.9883 z m -65.238,10.395 28.457,14.391 1.0781,8.8125 -4.2305,8.375 -65.734,-33.246 3.1602,-6.25 c 1.5273,-1.1914 2.9648,-2.4883 4.2734,-3.918 l 4.5352,-2.5508 16.527,8.3555 z m -43.707,142 c -18.801,-0.0781 -33.402,-7.4258 -44.766,-22.648 -1.9844,-16.59 3.8711,-31.402 17.758,-45.125 14.105,15.695 31.832,24.66 52.836,26.723 -2.8281,19.328 -11.281,32.824 -25.828,41.051 z m -75.84,-38.711 c -3.2891,-5.3242 -3.8047,-13.949 -1.4258,-23.66 2.6289,-10.727 8.4297,-21 14.902,-27.055 4.6445,7.5781 15.547,14.367 26.715,17.762 -13.133,13.996 -19.219,29.562 -18.219,46.398 -8.918,-0.42969 -16.324,-4.9688 -21.973,-13.445 z m 44.727,-107.54 c 4.4258,2.2383 9.1797,3.4375 13.984,3.6992 -5.7344,2.4492 -10.883,6.0625 -15.426,10.812 -1.9688,0.14844 -3.9062,0.53906 -5.8008,1.1406 l -8,-18.961 c 1.7891,-1.582 3.5156,-3.0117 5.1992,-4.3555 2.7891,3.0586 6.1367,5.6914 10.043,7.6641 z m 1.1992,66.957 c -14.219,-3.207 -25.781,-12.48 -25.93,-17.086 0.80469,-12.352 13.527,-26.07 24.293,-26.539 l 23.168,11.715 c -10.52,9.0234 -17.707,19.738 -21.531,31.91 z m 6.8633,-49.293 c 5.5742,-4.7578 12.023,-7.5742 19.543,-8.5586 l 14.125,7.1445 -11.746,12.496 z m -30.172,-14.402 6.8711,16.281 c -0.90625,0.60547 -1.7891,1.25 -2.6484,1.9375 -6.0547,-1.4922 -12.145,-1.8438 -18.223,-1.0312 4.3633,-6.543 9.1719,-12.273 14,-17.188 z m 82.055,93.316 c -20.633,-1.4805 -37.258,-9.8867 -50.676,-25.625 3.5117,-12.184 10.957,-22.754 22.188,-31.5 l 40.707,20.586 c -0.36328,14.387 -4.375,26.387 -12.219,36.539 z m -4.1211,-54.762 -17.574,-8.8906 11.746,-12.5 26.512,13.41 -3.1094,16.867 z m 28.945,-3.8008 14.125,7.1445 c 3.668,6.6406 5.2188,13.5 4.6914,20.812 l -21.926,-11.09 z m -21.836,-49.73 -14.113,-7.1367 c 1.7812,-4.6328 2.5195,-9.5234 2.2578,-14.422 l 15.035,15.273 z m -70.547,-31.625 c 4.6328,-9.1641 13.93,-14.457 23.559,-14.457 3.9922,0 8.0547,0.91016 11.852,2.8359 12.969,6.5586 18.184,22.445 11.621,35.414 -6.5547,12.973 -22.445,18.18 -35.414,11.621 -6.2812,-3.1758 -10.953,-8.6094 -13.145,-15.297 -2.192,-6.6876 -1.6445,-13.836 1.5273,-20.117 z m -57.926,58.91 -4.7969,-11.367 c 5.8359,-8.8086 17.148,-20.043 29.883,-23.488 -9.3398,10.125 -17.84,21.914 -25.086,34.855 z m -19.438,-46.07 21.266,-8.9727 c -0.71875,0.97656 -1.4336,1.9688 -2.1562,2.9648 -4.1406,5.7305 -8.4219,11.613 -14.48,16.996 z m 8.2578,19.574 c 8.0586,-6.5742 13.355,-13.867 18.059,-20.383 4.7422,-6.5664 8.9688,-12.355 15.109,-16.219 l 7.7852,18.441 c -15.758,1.332 -29.961,12.855 -38.594,23.75 z m -15.406,-82.68 5.0117,11.879 c -3.1797,-1.5898 -6.1875,-3.3555 -6.9531,-5.3594 -0.58984,-1.5508 0.14453,-3.1992 1.9414,-6.5195 z m 21.504,28.102 -29.484,-69.848 c -0.95703,-2.2617 -3.5625,-3.3125 -5.8203,-2.3633 -2.2617,0.94922 -3.3203,3.5586 -2.3633,5.8203 l 3.582,8.4844 c -4,-2.3828 -7.5078,-5.168 -9.2266,-10.516 -2.0977,-6.5547 0.22266,-11.09 2.6758,-15.895 2.207,-4.3359 4.7188,-9.2461 2.5938,-14.859 -2.1602,-5.6953 -7.6367,-8.8359 -12.477,-11.609 -2.6133,-1.5 -6.5625,-3.7617 -6.6445,-5.1484 -0.0781,-1.2344 -0.0781,-1.2344 1.625,-2.543 2.3359,-1.7852 5.8633,-4.4844 7.2852,-11.383 1.5742,-7.625 -1.543,-11.367 -4.0352,-14.375 -1.8086,-2.1758 -3.3711,-4.0625 -3.9375,-8.0312 -0.6875,-4.8398 2.0078,-10.941 4.8242,-15.676 l 67.945,160.96 z m -67.277,-90.383 c -9.832,-23.301 -9.6328,-52.27 2.9219,-69.875 -0.76562,3.0352 -1.1016,6.1758 -0.66797,9.2266 0.91797,6.4609 3.793,9.9258 5.8945,12.457 2.0977,2.5234 2.875,3.4688 2.168,6.918 -0.74609,3.6367 -2.1719,4.7266 -3.9766,6.1055 -2.1797,1.6719 -5.4805,4.1914 -5.1016,10.168 0.39063,6.1523 6.0781,9.4141 11.098,12.293 3.7109,2.1289 7.5469,4.332 8.5781,7.0508 0.69922,1.8438 -0.32422,4.0078 -2.1992,7.6758 -2.7109,5.3242 -6.4297,12.609 -3.2148,22.645 3.2031,10 10.484,14.035 16.344,17.273 4.3125,2.3906 7.0195,3.9883 8.1562,6.6875 1.2852,3.043 0.13672,5.4062 -1.9844,9.3242 -2.0508,3.7812 -4.6055,8.4766 -2.4883,14.031 2.2227,5.8164 8.3594,8.7578 13.781,11.355 2.6641,1.2734 6.6953,3.207 7.2422,4.5 0,0.004 0.004,0.004 0.004,0.008 l 2.5312,5.9961 -16.543,6.9844 z m 24.277,118.17 84.723,-35.754 3.457,8.2031 -17.664,7.4531 -67.062,28.301 z m 41.809,123.1 c -0.51562,2.2227 -2.1484,3.9531 -4.3672,4.6328 -0.95703,0.29297 -3.3984,0.75781 -5.625,-1.2969 -1.3125,-1.2422 -1.918,-3.2383 -1.582,-5.2188 1.2578,-7.5117 5.7656,-24.855 21.777,-56.535 11.125,-21.992 26.031,-40.961 42.535,-54.285 0.51953,4.3359 1.8516,8.5391 3.8945,12.395 -2.6484,2.1016 -5.4414,4.4883 -8.3242,7.1523 -0.125,0.10938 -0.24609,0.20703 -0.35547,0.32812 -8.8125,8.1914 -18.156,19 -25.355,32.477 -0.10938,0.1875 -0.23047,0.35938 -0.3125,0.55859 -0.27734,0.51953 -0.58203,1 -0.85156,1.5273 -3.7422,7.3984 -6.8633,14.469 -9.5703,21.176 -0.0312,0.0781 -0.0664,0.14844 -0.0937,0.22656 -5.9492,14.832 -9.6289,27.656 -11.77,36.863 z m 20.945,-35.832 c 2.4258,-5.8672 5.1875,-12.02 8.4297,-18.418 0.0352,-0.0664 0.0742,-0.12891 0.10547,-0.19531 5.7305,-1.8477 11.363,-2.457 17.039,-1.8125 -4.1367,5.4453 -7.0273,11.781 -7.9883,17.93 -3.375,2.3594 -6.5977,5.4922 -9.5117,9.2891 -3.3906,-1.3242 -6.1797,-3.6836 -8.0742,-6.793 z m -1.4883,91.262 c -2.5625,-15.113 0.91797,-21.48 3.5117,-24.043 6.0781,7.1797 13.582,11.465 22.148,12.723 -8.0742,11.941 -11.051,24.102 -8.8555,36.41 -6.8633,-5.6016 -14.98,-14.293 -16.805,-25.09 z m 28.934,34.113 c -6.7383,-14.293 -4.875,-28.227 5.5312,-42.434 11.652,13.816 26.535,21.336 44.359,22.445 -5.2773,16.797 -15.359,26.547 -30.523,29.535 -6.9727,0.78516 -16.145,-3.8281 -19.367,-9.5469 z m 63.621,12.691 c -9.7383,4.9102 -21.543,3.5273 -30.137,1.3281 11.137,-5.4961 19.168,-15.109 24.012,-28.727 6.0703,6.1484 13.988,9.6094 23.418,10.273 -0.50391,3.5898 -3.5352,10.199 -17.293,17.125 z m 42.184,-38.746 c -6.4102,7.6758 -13.672,12.375 -19.746,12.871 -10.332,0.50391 -18.363,-2.8008 -24.004,-9.7305 14.16,-9.1797 23.09,-23.312 26.578,-42.195 8.6328,6.4414 19.461,11.02 28.152,11.012 0.68359,0 1.3398,-0.0586 2,-0.11719 -1.0195,8.832 -5.8672,19.648 -12.98,28.16 z m 15.02,-37.656 c -4.1055,2.8555 -18.441,-0.95703 -29.457,-10.508 7.5391,-10.297 11.91,-22.438 12.938,-36.262 l 23.156,11.711 c 6.0117,8.9414 2.5234,27.328 -6.6367,35.059 z m 30.688,-103.55 c -1.3594,2.6875 -4.0117,4.6328 -7.4766,5.4766 -3.6484,0.89844 -7.7266,0.39844 -11.211,-1.3672 l -30.574,-15.461 -7.9688,-4.0312 4.6211,-9.1289 c 0.85937,-1.7031 0.53906,-3.7617 -0.80078,-5.1172 l -14.293,-14.523 71.691,36.258 z"
       id="path6" />
    <path
       d="m 297.19,130.3 c 0.46484,1.0781 1.3477,1.9336 2.4453,2.3594 0.52344,0.20703 1.0742,0.3125 1.6289,0.3125 0.60547,0 1.2031,-0.12109 1.7695,-0.36719 l 9.9492,-4.3164 2.0469,4.7227 c 0.46484,1.0781 1.3477,1.9336 2.4453,2.3594 0.52344,0.20703 1.0742,0.3125 1.6289,0.3125 0.60547,0 1.2031,-0.12109 1.7695,-0.36719 l 5.6055,-2.4297 13.156,10.344 c 1.2852,1.0078 3.0156,1.2305 4.5195,0.58203 l 94.598,-41.043 c 2.9102,-1.2656 6.3203,-0.11719 7.8047,2.5977 4,7.3477 10.93,16.727 21.207,19.66 14.535,4.1367 33.922,-8.2734 40.625,-13.043 10.32,5.625 21.629,25.09 30.023,39.551 7.2031,12.398 11.48,19.562 15.621,22.551 4.6602,3.3672 9.6211,5.0547 14.926,5.0547 10.188,0 21.637,-6.2344 34.602,-18.781 22.539,-21.801 18.633,-37.238 11.391,-46.348 -2.1445,-2.6953 -8.2617,-7.6875 -18.891,-16.266 -13.977,-11.289 -40.004,-32.297 -42.016,-39.355 -1.6758,-5.8594 0.33594,-11.379 2.3203,-14.973 2.7734,-5.0352 2.4023,-11.293 -0.9375,-15.961 l -0.29297,-0.41016 c -3.7109,-5.1758 -10.375,-7.4336 -16.605,-5.5859 -6.4688,1.9023 -12.035,2.3203 -15.926,1.9336 2.3203,-1.4883 4.2031,-3.4844 5.4336,-5.7969 1.8008,-3.3867 2.0273,-7.1836 0.61719,-10.438 -2.7891,-6.4258 -11.18,-9 -18.66,-5.7539 l -5.4141,2.3477 c -0.004,0 -0.004,0.00391 -0.008,0.00391 l -124.77,54.141 -43.422,18.84 c -0.004,0 -0.004,0.0039 -0.004,0.0039 l -2.0273,0.87891 c -2.2344,-0.84766 -4.1211,-2.3867 -5.6953,-4.7578 -2.625,-3.9727 -7.4531,-5.582 -11.449,-3.8477 l -4.1055,1.7773 c -4.1094,1.7812 -6.5977,6.168 -6.3438,11.172 l 0.39063,7.4609 -5.2109,2.2617 c -2.2461,0.97656 -3.2773,3.5938 -2.3047,5.8438 l 0.46484,1.0742 -9.9531,4.3125 c -1.0859,0.46484 -1.9375,1.3477 -2.3633,2.4453 -0.43359,1.0977 -0.41406,2.3164 0.0586,3.4023 z m 22.176,-9.6289 -0.84375,-1.9453 -8.9648,-20.668 27.984,-12.141 14.039,10.68 c 0.78516,0.60156 1.7383,0.90625 2.6875,0.90625 0.60156,0 1.1992,-0.12109 1.7578,-0.36328 l 91.129,-39.379 c 1.4805,-0.64062 2.4961,-2.0273 2.6602,-3.625 l 1.8086,-17.719 52.414,-22.738 3.3008,7.6055 c -2.6328,2.2617 -4.7578,5.875 -4.582,11.641 0.10547,3.4727 1.0547,7.5117 2.9453,12.508 l -184.29,79.961 z m 103.49,-71.77 19.422,-8.4297 -1.0391,10.164 -86.355,37.32 -8,-6.0938 z m 167.62,55.754 c 7.8047,6.3047 15.879,12.82 17.52,14.883 2.6836,3.3828 10.859,13.656 -10.617,34.43 -21.465,20.766 -32.051,17.309 -38.148,12.906 -2.8086,-2.0312 -8.0586,-11.066 -13.137,-19.809 -10.184,-17.531 -22.855,-39.348 -36.742,-44.383 -1.4102,-0.51172 -3.0117,-0.26953 -4.2188,0.65234 -6.1055,4.6875 -24.262,16.168 -34.93,13.133 -7.3125,-2.0898 -12.656,-9.5078 -15.844,-15.363 -3.7188,-6.8203 -11.945,-9.6367 -19.145,-6.5 l -92.168,39.992 -7.3047,-5.7344 177.48,-77.008 c 0.004,0 0.008,0 0.0195,-0.0039 l 36.09,-15.852 c 0.0312,1.0664 -0.19922,2.1406 -0.74219,3.1289 -2.7891,5.0586 -5.5898,12.934 -3.082,21.703 2.5781,9.043 21.062,24.527 44.969,43.824 z m -49.758,-74.59 -26.867,11.805 c -1.4141,-3.8086 -2.1445,-6.8516 -2.2188,-9.2227 -0.0508,-1.5977 0.21484,-2.6875 0.67188,-3.5273 6.4219,4.8164 18.52,3.8086 28.414,0.94531 z m -20.215,-19.367 c 0.44531,1.0273 -0.004,2.1445 -0.3125,2.7188 -0.69922,1.3125 -2.0156,2.4609 -3.6211,3.1602 l -1.3398,0.57812 -3.043,-7.0156 1.3398,-0.58203 c 3.2227,-1.3906 6.2539,-0.51563 6.9766,1.1406 z m -204.87,70.812 c -0.0664,-1.2266 0.34766,-2.2773 1.0039,-2.5625 l 3.9375,-1.7422 c 0.0703,0.0039 0.38281,0.11719 0.67188,0.55859 1.0312,1.5547 2.2109,2.8555 3.4609,4.0391 l -8.8555,3.8438 z m -12,25.242 4.5312,10.438 1.2812,2.9453 -5.875,2.5508 -5.8125,-13.387 z"
       id="path8" />
    <path
       d="m 495.18,70.004 c -1.0938,-0.43359 -2.3164,-0.42188 -3.4023,0.05859 l -35.402,15.363 c -1.125,0.48438 -2,1.4219 -2.4141,2.5781 -0.41797,1.1602 -0.32813,2.4375 0.23047,3.5273 3.6094,7.0078 12.68,17.836 24.773,17.836 2.8008,0 5.7617,-0.58203 8.8555,-1.9297 0.0273,-0.0117 0.0508,-0.0273 0.0742,-0.0391 0.0234,-0.008 0.043,-0.0234 0.0664,-0.0352 16.484,-7.2734 13.535,-26.059009 9.6602,-35.000009 -0.46484,-1.0781 -1.3438,-1.9336 -2.4414,-2.3594 z m -30.488,21.5 7.7031,-3.3398 c 5.043,2.5273 7.9336,6.4258 8.875,12.047 -7.5312,1.3984 -13.414,-4.457 -16.578,-8.707 z m 24.586,3.9727 c -1.3398,-4.6016 -3.8164,-8.4414 -7.2852,-11.48 l 8.8945,-3.8594 c 1.0859,4.2266 1.875,10.719 -1.6094,15.34 z"
       id="path10" />
    <path
       d="m 530.16,62.719 -11.129,4.8242 c -5.0508,2.1914 -8.3359,7.168 -8.3672,12.672 l -0.0234,3.3828 v 0.0039 c -0.0273,4.2344 1.8203,8.2227 5.0781,10.941 5.8555,4.8945 16.988,14.922 25.715,27.133 4.3242,6.043 7.2461,12.812 9.8281,18.789 4.668,10.801 9.0781,21.004 20.172,21.188 h 0.26172 c 11.418,0 21.613,-12.363 28.18,-22.785 3.3047,-5.2617 2.418,-12.164 -2.125,-16.426 l -62.789,-58.879 c -1.2891,-1.2266 -3.1758,-1.5508 -4.8008,-0.84375 z m 62.195,71.402 c -7.3633,11.684 -15.074,18.633 -20.664,18.633 h -0.10547 c -5.1094,-0.0859 -7.8203,-5.7773 -12.16,-15.828 -2.7539,-6.3789 -5.8828,-13.613 -10.758,-20.43 -9.2969,-13.012 -21.062,-23.617 -27.246,-28.785 -1.207,-1.0078 -1.8984,-2.4922 -1.8867,-4.0703 l 0.0234,-3.3828 c 0.0117,-1.9844 1.1992,-3.7852 3.0156,-4.5742 l 8.4453,-3.6602 60.656,56.879 c 1.4414,1.3594 1.7305,3.5547 0.67969,5.2188 z"
       id="path12" />
  </g>
</svg>
